<?xml version="1.0" standalone="no"?>
<!DOCTYPE svg PUBLIC "-//W3C//DTD SVG 20010904//EN"
 "http://www.w3.org/TR/2001/REC-SVG-20010904/DTD/svg10.dtd">
<svg version="1.0" xmlns="http://www.w3.org/2000/svg"
 width="112.000000pt" height="112.000000pt" viewBox="0 0 112.000000 112.000000"
 preserveAspectRatio="xMidYMid meet">
<metadata>
Created by potrace 1.14, written by Peter Selinger 2001-2017
</metadata>
<g transform="translate(0.000000,112.000000) scale(0.100000,-0.100000)"
fill="#000000" stroke="none">
<path d="M445 1098 c-27 -5 -88 -27 -135 -50 -148 -71 -250 -196 -290 -354
-25 -98 -25 -170 0 -268 40 -159 142 -283 291 -355 167 -80 335 -80 497 0 150
73 252 198 292 355 25 98 25 170 0 268 -72 284 -358 460 -655 404z m495 -293
l0 -45 -80 0 -80 0 0 -215 0 -215 -60 0 -60 0 -2 213 -3 212 -77 3 -78 3 0 44
0 45 220 0 220 0 0 -45z m-453 -147 c37 -33 53 -79 53 -145 -1 -135 -91 -209
-190 -158 l-30 16 0 -81 0 -80 -35 0 -35 0 0 235 0 235 35 0 c26 0 35 -4 35
-17 0 -14 2 -15 18 -1 9 9 24 18 32 21 29 12 92 -1 117 -25z"/>
<path d="M360 619 c-36 -14 -40 -26 -40 -111 0 -68 3 -79 22 -92 76 -53 148
33 119 142 -16 58 -52 80 -101 61z"/>
</g>
</svg>
